<mxfile host="app.diagrams.net" agent="Mozilla/5.0 (Windows NT 10.0; Win64; x64) AppleWebKit/537.36 (KHTML, like Gecko) Chrome/129.0.0.0 Safari/537.36" version="27.0.1">
  <diagram name="第 1 页" id="uLFJ8SncW3sbKlQuvjZg">
    <mxGraphModel dx="1828" dy="967" grid="1" gridSize="10" guides="1" tooltips="1" connect="1" arrows="1" fold="1" page="1" pageScale="1" pageWidth="1654" pageHeight="1169" math="0" shadow="0">
      <root>
        <mxCell id="0" />
        <mxCell id="1" parent="0" />
        <mxCell id="0JDXkcEKAHQ5cRbbdFEC-103" value="" style="group" vertex="1" connectable="0" parent="1">
          <mxGeometry x="150" y="453" width="732" height="120" as="geometry" />
        </mxCell>
        <mxCell id="0JDXkcEKAHQ5cRbbdFEC-66" value="" style="rounded=0;whiteSpace=wrap;html=1;fillColor=light-dark(#c1e4f7, #319eff);fontColor=#ffffff;strokeColor=default;" vertex="1" parent="0JDXkcEKAHQ5cRbbdFEC-103">
          <mxGeometry width="40" height="120" as="geometry" />
        </mxCell>
        <mxCell id="0JDXkcEKAHQ5cRbbdFEC-67" value="3" style="rounded=0;whiteSpace=wrap;html=1;fillColor=#B3B3B3;strokeColor=default;" vertex="1" parent="0JDXkcEKAHQ5cRbbdFEC-103">
          <mxGeometry x="50" width="80" height="30" as="geometry" />
        </mxCell>
        <mxCell id="0JDXkcEKAHQ5cRbbdFEC-68" value="Length" style="rounded=0;whiteSpace=wrap;html=1;" vertex="1" parent="0JDXkcEKAHQ5cRbbdFEC-103">
          <mxGeometry x="130" width="240" height="30" as="geometry" />
        </mxCell>
        <mxCell id="0JDXkcEKAHQ5cRbbdFEC-69" value="3-16M" style="rounded=0;whiteSpace=wrap;html=1;fillColor=#B3B3B3;strokeColor=default;" vertex="1" parent="0JDXkcEKAHQ5cRbbdFEC-103">
          <mxGeometry x="50" y="30" width="80" height="30" as="geometry" />
        </mxCell>
        <mxCell id="0JDXkcEKAHQ5cRbbdFEC-81" style="edgeStyle=orthogonalEdgeStyle;rounded=0;orthogonalLoop=1;jettySize=auto;html=1;exitX=1;exitY=0.5;exitDx=0;exitDy=0;entryX=0;entryY=0.5;entryDx=0;entryDy=0;" edge="1" parent="0JDXkcEKAHQ5cRbbdFEC-103" source="0JDXkcEKAHQ5cRbbdFEC-70" target="0JDXkcEKAHQ5cRbbdFEC-75">
          <mxGeometry relative="1" as="geometry" />
        </mxCell>
        <mxCell id="0JDXkcEKAHQ5cRbbdFEC-70" value="IV+Ciphertext+MAC" style="rounded=0;whiteSpace=wrap;html=1;" vertex="1" parent="0JDXkcEKAHQ5cRbbdFEC-103">
          <mxGeometry x="130" y="30" width="240" height="30" as="geometry" />
        </mxCell>
        <mxCell id="0JDXkcEKAHQ5cRbbdFEC-71" value="&lt;b&gt;Payload&lt;/b&gt;" style="text;html=1;align=center;verticalAlign=middle;whiteSpace=wrap;rounded=0;rotation=-90;" vertex="1" parent="0JDXkcEKAHQ5cRbbdFEC-103">
          <mxGeometry x="-10" y="47" width="60" height="30" as="geometry" />
        </mxCell>
        <mxCell id="0JDXkcEKAHQ5cRbbdFEC-80" value="" style="group" vertex="1" connectable="0" parent="0JDXkcEKAHQ5cRbbdFEC-103">
          <mxGeometry x="412" width="320" height="90" as="geometry" />
        </mxCell>
        <mxCell id="0JDXkcEKAHQ5cRbbdFEC-73" value="3" style="rounded=0;whiteSpace=wrap;html=1;fillColor=#B3B3B3;strokeColor=default;" vertex="1" parent="0JDXkcEKAHQ5cRbbdFEC-80">
          <mxGeometry width="80" height="30" as="geometry" />
        </mxCell>
        <mxCell id="0JDXkcEKAHQ5cRbbdFEC-74" value="IV" style="rounded=0;whiteSpace=wrap;html=1;" vertex="1" parent="0JDXkcEKAHQ5cRbbdFEC-80">
          <mxGeometry x="80" width="240" height="30" as="geometry" />
        </mxCell>
        <mxCell id="0JDXkcEKAHQ5cRbbdFEC-75" value="0-16M" style="rounded=0;whiteSpace=wrap;html=1;fillColor=#B3B3B3;strokeColor=default;" vertex="1" parent="0JDXkcEKAHQ5cRbbdFEC-80">
          <mxGeometry y="30" width="80" height="30" as="geometry" />
        </mxCell>
        <mxCell id="0JDXkcEKAHQ5cRbbdFEC-76" value="Ciphertext" style="rounded=0;whiteSpace=wrap;html=1;" vertex="1" parent="0JDXkcEKAHQ5cRbbdFEC-80">
          <mxGeometry x="80" y="30" width="240" height="30" as="geometry" />
        </mxCell>
        <mxCell id="0JDXkcEKAHQ5cRbbdFEC-78" value="8-32" style="rounded=0;whiteSpace=wrap;html=1;fillColor=#B3B3B3;strokeColor=default;" vertex="1" parent="0JDXkcEKAHQ5cRbbdFEC-80">
          <mxGeometry y="60" width="80" height="30" as="geometry" />
        </mxCell>
        <mxCell id="0JDXkcEKAHQ5cRbbdFEC-79" value="MAC" style="rounded=0;whiteSpace=wrap;html=1;" vertex="1" parent="0JDXkcEKAHQ5cRbbdFEC-80">
          <mxGeometry x="80" y="60" width="240" height="30" as="geometry" />
        </mxCell>
        <mxCell id="0JDXkcEKAHQ5cRbbdFEC-83" value="3" style="rounded=0;whiteSpace=wrap;html=1;fillColor=#B3B3B3;strokeColor=default;dashed=1;" vertex="1" parent="0JDXkcEKAHQ5cRbbdFEC-103">
          <mxGeometry x="50" y="60" width="80" height="30" as="geometry" />
        </mxCell>
        <mxCell id="0JDXkcEKAHQ5cRbbdFEC-84" value="Length" style="rounded=0;whiteSpace=wrap;html=1;dashed=1;" vertex="1" parent="0JDXkcEKAHQ5cRbbdFEC-103">
          <mxGeometry x="130" y="60" width="240" height="30" as="geometry" />
        </mxCell>
        <mxCell id="0JDXkcEKAHQ5cRbbdFEC-85" value="3-16M" style="rounded=0;whiteSpace=wrap;html=1;fillColor=#B3B3B3;strokeColor=default;dashed=1;" vertex="1" parent="0JDXkcEKAHQ5cRbbdFEC-103">
          <mxGeometry x="50" y="90" width="80" height="30" as="geometry" />
        </mxCell>
        <mxCell id="0JDXkcEKAHQ5cRbbdFEC-86" value="IV+Ciphertext+MAC" style="rounded=0;whiteSpace=wrap;html=1;dashed=1;" vertex="1" parent="0JDXkcEKAHQ5cRbbdFEC-103">
          <mxGeometry x="130" y="90" width="240" height="30" as="geometry" />
        </mxCell>
        <mxCell id="0JDXkcEKAHQ5cRbbdFEC-104" value="" style="group" vertex="1" connectable="0" parent="1">
          <mxGeometry x="150" y="640" width="370" height="61" as="geometry" />
        </mxCell>
        <mxCell id="0JDXkcEKAHQ5cRbbdFEC-90" value="" style="rounded=0;whiteSpace=wrap;html=1;fillColor=light-dark(#c1e4f7, #319eff);fontColor=#ffffff;strokeColor=default;" vertex="1" parent="0JDXkcEKAHQ5cRbbdFEC-104">
          <mxGeometry width="40" height="60" as="geometry" />
        </mxCell>
        <mxCell id="0JDXkcEKAHQ5cRbbdFEC-91" value="33-67" style="rounded=0;whiteSpace=wrap;html=1;fillColor=#B3B3B3;strokeColor=default;" vertex="1" parent="0JDXkcEKAHQ5cRbbdFEC-104">
          <mxGeometry x="50" width="80" height="30" as="geometry" />
        </mxCell>
        <mxCell id="0JDXkcEKAHQ5cRbbdFEC-92" value="Signer Public" style="rounded=0;whiteSpace=wrap;html=1;" vertex="1" parent="0JDXkcEKAHQ5cRbbdFEC-104">
          <mxGeometry x="130" width="240" height="30" as="geometry" />
        </mxCell>
        <mxCell id="0JDXkcEKAHQ5cRbbdFEC-93" value="64-132" style="rounded=0;whiteSpace=wrap;html=1;fillColor=#B3B3B3;strokeColor=default;" vertex="1" parent="0JDXkcEKAHQ5cRbbdFEC-104">
          <mxGeometry x="50" y="30" width="80" height="30" as="geometry" />
        </mxCell>
        <mxCell id="0JDXkcEKAHQ5cRbbdFEC-94" value="Signature Body" style="rounded=0;whiteSpace=wrap;html=1;" vertex="1" parent="0JDXkcEKAHQ5cRbbdFEC-104">
          <mxGeometry x="130" y="30" width="240" height="30" as="geometry" />
        </mxCell>
        <mxCell id="0JDXkcEKAHQ5cRbbdFEC-95" value="&lt;b&gt;Signature&lt;/b&gt;" style="text;html=1;align=center;verticalAlign=middle;whiteSpace=wrap;rounded=0;rotation=-90;" vertex="1" parent="0JDXkcEKAHQ5cRbbdFEC-104">
          <mxGeometry x="-10" y="16" width="60" height="30" as="geometry" />
        </mxCell>
        <mxCell id="0JDXkcEKAHQ5cRbbdFEC-105" value="" style="group" vertex="1" connectable="0" parent="1">
          <mxGeometry x="150" y="100" width="1452" height="322" as="geometry" />
        </mxCell>
        <mxCell id="0JDXkcEKAHQ5cRbbdFEC-52" value="" style="group" vertex="1" connectable="0" parent="0JDXkcEKAHQ5cRbbdFEC-105">
          <mxGeometry x="410" y="255" width="320" height="30" as="geometry" />
        </mxCell>
        <mxCell id="0JDXkcEKAHQ5cRbbdFEC-27" value="Object" style="rounded=0;whiteSpace=wrap;html=1;fillColor=#B3B3B3;strokeColor=default;dashed=1;" vertex="1" parent="0JDXkcEKAHQ5cRbbdFEC-52">
          <mxGeometry width="80" height="30" as="geometry" />
        </mxCell>
        <mxCell id="0JDXkcEKAHQ5cRbbdFEC-28" value="Vocabulary" style="rounded=0;whiteSpace=wrap;html=1;dashed=1;" vertex="1" parent="0JDXkcEKAHQ5cRbbdFEC-52">
          <mxGeometry x="80" width="240" height="30" as="geometry" />
        </mxCell>
        <mxCell id="0JDXkcEKAHQ5cRbbdFEC-1" value="" style="rounded=0;whiteSpace=wrap;html=1;fillColor=light-dark(#c7e8ac, #4a890c);fontColor=#ffffff;strokeColor=default;" vertex="1" parent="0JDXkcEKAHQ5cRbbdFEC-105">
          <mxGeometry width="40" height="210" as="geometry" />
        </mxCell>
        <mxCell id="0JDXkcEKAHQ5cRbbdFEC-2" value="4" style="rounded=0;whiteSpace=wrap;html=1;fillColor=#B3B3B3;strokeColor=default;" vertex="1" parent="0JDXkcEKAHQ5cRbbdFEC-105">
          <mxGeometry x="50" width="80" height="30" as="geometry" />
        </mxCell>
        <mxCell id="0JDXkcEKAHQ5cRbbdFEC-4" value="Type Identifier" style="rounded=0;whiteSpace=wrap;html=1;" vertex="1" parent="0JDXkcEKAHQ5cRbbdFEC-105">
          <mxGeometry x="130" width="240" height="30" as="geometry" />
        </mxCell>
        <mxCell id="0JDXkcEKAHQ5cRbbdFEC-5" value="16" style="rounded=0;whiteSpace=wrap;html=1;fillColor=#B3B3B3;strokeColor=default;" vertex="1" parent="0JDXkcEKAHQ5cRbbdFEC-105">
          <mxGeometry x="50" y="30" width="80" height="30" as="geometry" />
        </mxCell>
        <mxCell id="0JDXkcEKAHQ5cRbbdFEC-6" value="Data Object Identifier" style="rounded=0;whiteSpace=wrap;html=1;" vertex="1" parent="0JDXkcEKAHQ5cRbbdFEC-105">
          <mxGeometry x="130" y="30" width="240" height="30" as="geometry" />
        </mxCell>
        <mxCell id="0JDXkcEKAHQ5cRbbdFEC-7" value="2" style="rounded=0;whiteSpace=wrap;html=1;fillColor=#B3B3B3;strokeColor=default;" vertex="1" parent="0JDXkcEKAHQ5cRbbdFEC-105">
          <mxGeometry x="50" y="60" width="80" height="30" as="geometry" />
        </mxCell>
        <mxCell id="0JDXkcEKAHQ5cRbbdFEC-8" value="Version" style="rounded=0;whiteSpace=wrap;html=1;" vertex="1" parent="0JDXkcEKAHQ5cRbbdFEC-105">
          <mxGeometry x="130" y="60" width="240" height="30" as="geometry" />
        </mxCell>
        <mxCell id="0JDXkcEKAHQ5cRbbdFEC-9" value="2" style="rounded=0;whiteSpace=wrap;html=1;fillColor=#B3B3B3;strokeColor=default;" vertex="1" parent="0JDXkcEKAHQ5cRbbdFEC-105">
          <mxGeometry x="50" y="90" width="80" height="30" as="geometry" />
        </mxCell>
        <mxCell id="0JDXkcEKAHQ5cRbbdFEC-10" value="Payload Offset" style="rounded=0;whiteSpace=wrap;html=1;" vertex="1" parent="0JDXkcEKAHQ5cRbbdFEC-105">
          <mxGeometry x="130" y="90" width="240" height="30" as="geometry" />
        </mxCell>
        <mxCell id="0JDXkcEKAHQ5cRbbdFEC-11" value="1" style="rounded=0;whiteSpace=wrap;html=1;fillColor=#B3B3B3;strokeColor=default;" vertex="1" parent="0JDXkcEKAHQ5cRbbdFEC-105">
          <mxGeometry x="50" y="120" width="80" height="30" as="geometry" />
        </mxCell>
        <mxCell id="0JDXkcEKAHQ5cRbbdFEC-12" value="Symmetric &amp;amp; Signature Config" style="rounded=0;whiteSpace=wrap;html=1;" vertex="1" parent="0JDXkcEKAHQ5cRbbdFEC-105">
          <mxGeometry x="130" y="120" width="240" height="30" as="geometry" />
        </mxCell>
        <mxCell id="0JDXkcEKAHQ5cRbbdFEC-13" value="2" style="rounded=0;whiteSpace=wrap;html=1;fillColor=#B3B3B3;strokeColor=default;" vertex="1" parent="0JDXkcEKAHQ5cRbbdFEC-105">
          <mxGeometry x="50" y="150" width="80" height="30" as="geometry" />
        </mxCell>
        <mxCell id="0JDXkcEKAHQ5cRbbdFEC-30" style="edgeStyle=orthogonalEdgeStyle;rounded=0;orthogonalLoop=1;jettySize=auto;html=1;exitX=1;exitY=0.5;exitDx=0;exitDy=0;entryX=0;entryY=0.5;entryDx=0;entryDy=0;" edge="1" parent="0JDXkcEKAHQ5cRbbdFEC-105" source="0JDXkcEKAHQ5cRbbdFEC-33">
          <mxGeometry relative="1" as="geometry">
            <mxPoint x="410" y="194.9999999999999" as="targetPoint" />
          </mxGeometry>
        </mxCell>
        <mxCell id="0JDXkcEKAHQ5cRbbdFEC-14" value="Metadata Length" style="rounded=0;whiteSpace=wrap;html=1;" vertex="1" parent="0JDXkcEKAHQ5cRbbdFEC-105">
          <mxGeometry x="130" y="150" width="240" height="30" as="geometry" />
        </mxCell>
        <mxCell id="0JDXkcEKAHQ5cRbbdFEC-15" value="&lt;b&gt;Header&lt;/b&gt;" style="text;html=1;align=center;verticalAlign=middle;whiteSpace=wrap;rounded=0;rotation=-90;" vertex="1" parent="0JDXkcEKAHQ5cRbbdFEC-105">
          <mxGeometry x="-10" y="75" width="60" height="30" as="geometry" />
        </mxCell>
        <mxCell id="0JDXkcEKAHQ5cRbbdFEC-17" value="String" style="rounded=0;whiteSpace=wrap;html=1;fillColor=#B3B3B3;strokeColor=default;" vertex="1" parent="0JDXkcEKAHQ5cRbbdFEC-105">
          <mxGeometry x="410" y="105" width="80" height="30" as="geometry" />
        </mxCell>
        <mxCell id="0JDXkcEKAHQ5cRbbdFEC-18" value="Type Identifier" style="rounded=0;whiteSpace=wrap;html=1;" vertex="1" parent="0JDXkcEKAHQ5cRbbdFEC-105">
          <mxGeometry x="490" y="105" width="240" height="30" as="geometry" />
        </mxCell>
        <mxCell id="0JDXkcEKAHQ5cRbbdFEC-19" value="uint64" style="rounded=0;whiteSpace=wrap;html=1;fillColor=#B3B3B3;strokeColor=default;" vertex="1" parent="0JDXkcEKAHQ5cRbbdFEC-105">
          <mxGeometry x="410" y="135" width="80" height="30" as="geometry" />
        </mxCell>
        <mxCell id="0JDXkcEKAHQ5cRbbdFEC-20" value="Data Size" style="rounded=0;whiteSpace=wrap;html=1;" vertex="1" parent="0JDXkcEKAHQ5cRbbdFEC-105">
          <mxGeometry x="490" y="135" width="240" height="30" as="geometry" />
        </mxCell>
        <mxCell id="0JDXkcEKAHQ5cRbbdFEC-21" value="String" style="rounded=0;whiteSpace=wrap;html=1;fillColor=#B3B3B3;strokeColor=default;" vertex="1" parent="0JDXkcEKAHQ5cRbbdFEC-105">
          <mxGeometry x="410" y="165" width="80" height="30" as="geometry" />
        </mxCell>
        <mxCell id="0JDXkcEKAHQ5cRbbdFEC-22" value="Owner" style="rounded=0;whiteSpace=wrap;html=1;" vertex="1" parent="0JDXkcEKAHQ5cRbbdFEC-105">
          <mxGeometry x="490" y="165" width="240" height="30" as="geometry" />
        </mxCell>
        <mxCell id="0JDXkcEKAHQ5cRbbdFEC-23" value="String" style="rounded=0;whiteSpace=wrap;html=1;fillColor=#B3B3B3;strokeColor=default;" vertex="1" parent="0JDXkcEKAHQ5cRbbdFEC-105">
          <mxGeometry x="410" y="195" width="80" height="30" as="geometry" />
        </mxCell>
        <mxCell id="0JDXkcEKAHQ5cRbbdFEC-24" value="Description" style="rounded=0;whiteSpace=wrap;html=1;" vertex="1" parent="0JDXkcEKAHQ5cRbbdFEC-105">
          <mxGeometry x="490" y="195" width="240" height="30" as="geometry" />
        </mxCell>
        <mxCell id="0JDXkcEKAHQ5cRbbdFEC-25" value="Boolean" style="rounded=0;whiteSpace=wrap;html=1;fillColor=#B3B3B3;strokeColor=default;" vertex="1" parent="0JDXkcEKAHQ5cRbbdFEC-105">
          <mxGeometry x="410" y="225" width="80" height="30" as="geometry" />
        </mxCell>
        <mxCell id="0JDXkcEKAHQ5cRbbdFEC-26" value="Stuctured data" style="rounded=0;whiteSpace=wrap;html=1;" vertex="1" parent="0JDXkcEKAHQ5cRbbdFEC-105">
          <mxGeometry x="490" y="225" width="240" height="30" as="geometry" />
        </mxCell>
        <mxCell id="0JDXkcEKAHQ5cRbbdFEC-50" style="edgeStyle=orthogonalEdgeStyle;rounded=0;orthogonalLoop=1;jettySize=auto;html=1;entryX=0;entryY=0;entryDx=0;entryDy=0;" edge="1" parent="0JDXkcEKAHQ5cRbbdFEC-105" source="0JDXkcEKAHQ5cRbbdFEC-28" target="0JDXkcEKAHQ5cRbbdFEC-39">
          <mxGeometry relative="1" as="geometry">
            <mxPoint x="813" y="270" as="targetPoint" />
            <Array as="points">
              <mxPoint x="790" y="270" />
              <mxPoint x="790" y="270" />
            </Array>
          </mxGeometry>
        </mxCell>
        <mxCell id="0JDXkcEKAHQ5cRbbdFEC-31" value="&lt;b&gt;JSON格式&lt;/b&gt;" style="text;html=1;align=center;verticalAlign=middle;whiteSpace=wrap;rounded=0;" vertex="1" parent="0JDXkcEKAHQ5cRbbdFEC-105">
          <mxGeometry x="550" y="292" width="60" height="30" as="geometry" />
        </mxCell>
        <mxCell id="0JDXkcEKAHQ5cRbbdFEC-32" value="2-65508" style="rounded=0;whiteSpace=wrap;html=1;fillColor=#B3B3B3;strokeColor=default;" vertex="1" parent="0JDXkcEKAHQ5cRbbdFEC-105">
          <mxGeometry x="50" y="180" width="80" height="30" as="geometry" />
        </mxCell>
        <mxCell id="0JDXkcEKAHQ5cRbbdFEC-33" value="Metadata JSON Plaintext" style="rounded=0;whiteSpace=wrap;html=1;" vertex="1" parent="0JDXkcEKAHQ5cRbbdFEC-105">
          <mxGeometry x="130" y="180" width="240" height="30" as="geometry" />
        </mxCell>
        <mxCell id="0JDXkcEKAHQ5cRbbdFEC-37" value="String" style="rounded=0;whiteSpace=wrap;html=1;fillColor=#B3B3B3;strokeColor=default;" vertex="1" parent="0JDXkcEKAHQ5cRbbdFEC-105">
          <mxGeometry x="770" y="240" width="80" height="30" as="geometry" />
        </mxCell>
        <mxCell id="0JDXkcEKAHQ5cRbbdFEC-38" value="Data Type" style="rounded=0;whiteSpace=wrap;html=1;" vertex="1" parent="0JDXkcEKAHQ5cRbbdFEC-105">
          <mxGeometry x="850" y="240" width="240" height="30" as="geometry" />
        </mxCell>
        <mxCell id="0JDXkcEKAHQ5cRbbdFEC-39" value="Array" style="rounded=0;whiteSpace=wrap;html=1;fillColor=#B3B3B3;strokeColor=default;" vertex="1" parent="0JDXkcEKAHQ5cRbbdFEC-105">
          <mxGeometry x="770" y="270" width="80" height="30" as="geometry" />
        </mxCell>
        <mxCell id="0JDXkcEKAHQ5cRbbdFEC-100" style="edgeStyle=orthogonalEdgeStyle;rounded=0;orthogonalLoop=1;jettySize=auto;html=1;exitX=1;exitY=0.5;exitDx=0;exitDy=0;entryX=0;entryY=0;entryDx=0;entryDy=0;" edge="1" parent="0JDXkcEKAHQ5cRbbdFEC-105" source="0JDXkcEKAHQ5cRbbdFEC-40" target="0JDXkcEKAHQ5cRbbdFEC-57">
          <mxGeometry relative="1" as="geometry">
            <Array as="points">
              <mxPoint x="1120" y="285" />
              <mxPoint x="1120" y="285" />
            </Array>
          </mxGeometry>
        </mxCell>
        <mxCell id="0JDXkcEKAHQ5cRbbdFEC-40" value="Fields" style="rounded=0;whiteSpace=wrap;html=1;" vertex="1" parent="0JDXkcEKAHQ5cRbbdFEC-105">
          <mxGeometry x="850" y="270" width="240" height="30" as="geometry" />
        </mxCell>
        <mxCell id="0JDXkcEKAHQ5cRbbdFEC-55" value="String" style="rounded=0;whiteSpace=wrap;html=1;fillColor=#B3B3B3;strokeColor=default;" vertex="1" parent="0JDXkcEKAHQ5cRbbdFEC-105">
          <mxGeometry x="1132" y="255" width="80" height="30" as="geometry" />
        </mxCell>
        <mxCell id="0JDXkcEKAHQ5cRbbdFEC-56" value="Path" style="rounded=0;whiteSpace=wrap;html=1;" vertex="1" parent="0JDXkcEKAHQ5cRbbdFEC-105">
          <mxGeometry x="1212" y="255" width="240" height="30" as="geometry" />
        </mxCell>
        <mxCell id="0JDXkcEKAHQ5cRbbdFEC-57" value="String" style="rounded=0;whiteSpace=wrap;html=1;fillColor=#B3B3B3;strokeColor=default;" vertex="1" parent="0JDXkcEKAHQ5cRbbdFEC-105">
          <mxGeometry x="1132" y="285" width="80" height="30" as="geometry" />
        </mxCell>
        <mxCell id="0JDXkcEKAHQ5cRbbdFEC-58" value="Type" style="rounded=0;whiteSpace=wrap;html=1;" vertex="1" parent="0JDXkcEKAHQ5cRbbdFEC-105">
          <mxGeometry x="1212" y="285" width="240" height="30" as="geometry" />
        </mxCell>
        <mxCell id="0JDXkcEKAHQ5cRbbdFEC-106" value="" style="shape=image;html=1;verticalAlign=top;verticalLabelPosition=bottom;labelBackgroundColor=#ffffff;imageAspect=0;aspect=fixed;image=https://cdn4.iconfinder.com/data/icons/ionicons/512/icon-ios7-more-128.png;imageBackground=none;" vertex="1" parent="1">
          <mxGeometry x="213" y="562" width="50" height="50" as="geometry" />
        </mxCell>
      </root>
    </mxGraphModel>
  </diagram>
</mxfile>
